<svg xmlns="http://www.w3.org/2000/svg" viewBox="0 0 32 32" role="img" aria-label="Guitar">
  <path
    fill="#334155"
    fill-rule="evenodd"
    clip-rule="evenodd"
    d="M13 1.5h6A1.5 1.5 0 0 1 20.5 3v2H11.5V3A1.5 1.5 0 0 1 13 1.5ZM14.25 5h3.5v7.5H14.25V5ZM16 12.5C10.5 12.5 7 16 7 20c0 1.5.8 2.8 2 3.5-2 1-3 3-3 5 0 2 2.5 3.5 5 3.5 1.5 0 2.9-.6 4-1.6 1.1 1 2.5 1.6 4 1.6 2.5 0 5-1.5 5-3.5 0-2-1-4-3-5 1.2-.7 2-2 2-3.5 0-4-3.5-7.5-9-7.5ZM16 18a2.25 2.25 0 1 0 0 4.5A2.25 2.25 0 0 0 16 18Z"
  />
</svg>
